<?xml version="1.0" standalone="no"?><!DOCTYPE svg PUBLIC "-//W3C//DTD SVG 1.1//EN" "http://www.w3.org/Graphics/SVG/1.1/DTD/svg11.dtd"><svg class="icon" width="200px" height="200.00px" viewBox="0 0 1024 1024" version="1.1" xmlns="http://www.w3.org/2000/svg"><path fill="#d81e06" d="M431.1 326.5L233.9 432.7c-12.7 6.8-19.6 19.9-19.5 33.3-0.7 2.8-1.1 5.7-1.1 8.7v174.2c0 20.6 16.7 37.3 37.3 37.3 20.6 0 37.3-16.7 37.3-37.3V488.3l178.5-96.1c18.2-9.8 24.9-32.4 15.2-50.6-9.7-18.1-32.3-24.9-50.5-15.1zM512 88.9L64 337.8v497.8c0 55 44.6 99.6 99.6 99.6h273.8V810.7c0-27.5 22.3-49.8 49.8-49.8h99.6c27.5 0 49.8 22.3 49.8 49.8v124.4h224c55 0 99.6-44.6 99.6-99.6V337.8L512 88.9z m373.3 721.8c0 27.5-22.3 49.8-49.8 49.8H711.1v-74.7c0-55-44.6-99.6-99.6-99.6H462.2c-55 0-99.6 44.6-99.6 99.6v74.7H188.4c-27.5 0-49.8-22.3-49.8-49.8V387.6L512 188.4l373.3 199.1v423.2z"  /></svg>